<?xml version="1.0" encoding="UTF-8" standalone="no"?>
<svg
   xmlns:dc="http://purl.org/dc/elements/1.1/"
   xmlns:cc="http://creativecommons.org/ns#"
   xmlns:rdf="http://www.w3.org/1999/02/22-rdf-syntax-ns#"
   xmlns:svg="http://www.w3.org/2000/svg"
   xmlns="http://www.w3.org/2000/svg"
   xmlns:sodipodi="http://sodipodi.sourceforge.net/DTD/sodipodi-0.dtd"
   xmlns:inkscape="http://www.inkscape.org/namespaces/inkscape"
   width="500"
   height="400"
   viewBox="0 0 375.00008 300.00043"
   xml:space="preserve"
   color-interpolation-filters="sRGB"
   class="st9"
   version="1.1"
   id="svg144"
   sodipodi:docname="FourConditionsOfDeterministicDecision.svg"
   inkscape:version="1.0.2 (e86c870879, 2021-01-15)"><metadata
   id="metadata148"><rdf:RDF><cc:Work
       rdf:about=""><dc:format>image/svg+xml</dc:format><dc:type
         rdf:resource="http://purl.org/dc/dcmitype/StillImage" /><dc:title></dc:title></cc:Work></rdf:RDF></metadata><sodipodi:namedview
   pagecolor="#ffffff"
   bordercolor="#666666"
   borderopacity="1"
   objecttolerance="10"
   gridtolerance="10"
   guidetolerance="10"
   inkscape:pageopacity="0"
   inkscape:pageshadow="2"
   inkscape:window-width="1920"
   inkscape:window-height="965"
   id="namedview146"
   showgrid="false"
   inkscape:zoom="1.5329768"
   inkscape:cx="405.17788"
   inkscape:cy="225.26506"
   inkscape:window-x="0"
   inkscape:window-y="0"
   inkscape:window-maximized="1"
   inkscape:current-layer="svg144"
   inkscape:document-rotation="0"
   width="11.6929in"
   units="px" />
	<style
   type="text/css"
   id="style2">
	<![CDATA[
		.st1 {visibility:visible}
		.st2 {fill:#000000;fill-opacity:0.2;filter:url(#filter_4);stroke:#000000;stroke-linecap:round;stroke-linejoin:round;stroke-opacity:0.2}
		.st3 {fill:url(#grad8-7);stroke:#1e77c8;stroke-linecap:round;stroke-linejoin:round;stroke-width:0.5}
		.st4 {fill:#1e77c8;font-family:宋体;font-size:0.833336em}
		.st5 {font-family:黑体;font-size:1em}
		.st6 {fill:#e6f2e3;stroke:#67a951;stroke-linecap:round;stroke-linejoin:round;stroke-width:0.5}
		.st7 {fill:#1e77c8;font-family:黑体;font-size:0.833336em}
		.st8 {font-size:1em}
		.st9 {fill:none;fill-rule:evenodd;font-size:12px;overflow:visible;stroke-linecap:square;stroke-miterlimit:3}
	]]>
	</style>

	<defs
   id="Patterns_And_Gradients">
		<pattern
   id="grad8-7"
   x="0"
   y="0"
   width="1"
   height="1"
   patternContentUnits="objectBoundingBox">
			<path
   d="M 0 0 L 1 0 L 1 1 z"
   style="fill:url(#grad0-8)"
   id="path4" />
			<path
   d="M 0 0 L 0 1 L 1 1 z"
   style="fill:url(#grad0-9)"
   id="path6" />
		</pattern>
		<linearGradient
   id="grad0-8"
   x1="0"
   y1="0"
   x2="1"
   y2="0"
   gradientTransform="rotate(-90,0.5,0.5)">
			<stop
   offset="0.42"
   stop-color="#ffffff"
   stop-opacity="1"
   id="stop9" />
			<stop
   offset="0.79"
   stop-color="#ecf1fc"
   stop-opacity="1"
   id="stop11" />
			<stop
   offset="1"
   stop-color="#d9e3f9"
   stop-opacity="1"
   id="stop13" />
		</linearGradient>
		<linearGradient
   id="grad0-9"
   x1="0"
   y1="0"
   x2="1"
   y2="0"
   gradientTransform="rotate(180,0.5,0.5)">
			<stop
   offset="0.42"
   stop-color="#ffffff"
   stop-opacity="1"
   id="stop16" />
			<stop
   offset="0.79"
   stop-color="#ecf1fc"
   stop-opacity="1"
   id="stop18" />
			<stop
   offset="1"
   stop-color="#d9e3f9"
   stop-opacity="1"
   id="stop20" />
		</linearGradient>
	</defs>
	<defs
   id="Filters">
		<filter
   id="filter_4">
			<feGaussianBlur
   stdDeviation="4"
   id="feGaussianBlur24" />
		</filter>
	</defs>
	<g
   id="g142"
   transform="matrix(0.61834625,0,0,0.65842617,-1.3850696,-86.785046)">
		<title
   id="title28">页-1</title>
		<g
   id="shape2-1"
   transform="translate(265.748,-334.646)">
			<title
   id="title30">椭圆形</title>
			<desc
   id="desc32">4.各方案在自然状态下的损益值</desc>
			<g
   id="shadow2-2"
   transform="matrix(1,0,0.259988,0.16884,-218.881,699.745)"
   class="st1">
				<path
   d="m 0,813.54 a 42.52,28.3467 0 0 1 85.04,0 42.52,28.3467 0 1 1 -85.04,0 z"
   class="st2"
   id="path34" />
			</g>
			<path
   d="m 0,813.54 a 42.52,28.3467 0 0 1 85.04,0 42.52,28.3467 0 1 1 -85.04,0 z"
   class="st3"
   id="path37" />
			<text
   x="12.52"
   y="804.53998"
   class="st4"
   id="text45">4.<tspan
   class="st5"
   id="tspan39">各方案在自</tspan><tspan
   x="12.52"
   dy="1.2em"
   class="st5"
   id="tspan41">然状态下的损</tspan><tspan
   x="32.52"
   dy="1.2em"
   class="st5"
   id="tspan43">益值</tspan></text>		</g>
		<g
   id="shape3-14"
   transform="translate(100,-471.26)">
			<title
   id="title48">椭圆形.3</title>
			<desc
   id="desc50">1.一个明确的决策目标</desc>
			<g
   id="shadow3-15"
   transform="matrix(1,0,0.259988,0.16884,-218.881,699.745)"
   class="st1">
				<path
   d="m 0,813.54 a 42.52,28.3467 0 0 1 85.04,0 42.52,28.3467 0 1 1 -85.04,0 z"
   class="st2"
   id="path52" />
			</g>
			<path
   d="m 0,813.54 a 42.52,28.3467 0 0 1 85.04,0 42.52,28.3467 0 1 1 -85.04,0 z"
   class="st3"
   id="path55" />
			<text
   x="12.52"
   y="810.53998"
   class="st4"
   id="text61">1.<tspan
   class="st5"
   id="tspan57">一个明确的</tspan><tspan
   x="22.52"
   dy="1.2em"
   class="st5"
   id="tspan59">决策目标</tspan></text>		</g>
		<g
   id="shape4-23"
   transform="translate(265.748,-595.276)">
			<title
   id="title64">椭圆形.4</title>
			<desc
   id="desc66">2.一个明确的自然状态</desc>
			<g
   id="shadow4-24"
   transform="matrix(1,0,0.259988,0.16884,-218.881,699.745)"
   class="st1">
				<path
   d="m 0,813.54 a 42.52,28.3467 0 0 1 85.04,0 42.52,28.3467 0 1 1 -85.04,0 z"
   class="st2"
   id="path68" />
			</g>
			<path
   d="m 0,813.54 a 42.52,28.3467 0 0 1 85.04,0 42.52,28.3467 0 1 1 -85.04,0 z"
   class="st3"
   id="path71" />
			<text
   x="12.52"
   y="810.53998"
   class="st4"
   id="text77">2.<tspan
   class="st5"
   id="tspan73">一个明确的</tspan><tspan
   x="22.52"
   dy="1.2em"
   class="st5"
   id="tspan75">自然状态</tspan></text>		</g>
		<g
   id="shape5-32"
   transform="translate(431.496,-471.26)">
			<title
   id="title80">椭圆形.5</title>
			<desc
   id="desc82">3.可供选择的多个决策方案</desc>
			<g
   id="shadow5-33"
   transform="matrix(1,0,0.259988,0.16884,-218.881,699.745)"
   class="st1">
				<path
   d="m 0,813.54 a 42.52,28.3467 0 0 1 85.04,0 42.52,28.3467 0 1 1 -85.04,0 z"
   class="st2"
   id="path84" />
			</g>
			<path
   d="m 0,813.54 a 42.52,28.3467 0 0 1 85.04,0 42.52,28.3467 0 1 1 -85.04,0 z"
   class="st3"
   id="path87" />
			<text
   x="12.52"
   y="810.53998"
   class="st4"
   id="text93">3.<tspan
   class="st5"
   id="tspan89">可供选择的</tspan><tspan
   x="12.52"
   dy="1.2em"
   class="st5"
   id="tspan91">多个决策方案</tspan></text>		</g>
		<g
   id="shape6-41"
   transform="rotate(90,451.773,698.387)">
			<title
   id="title96">普通箭头</title>
			<g
   id="shadow6-42"
   transform="matrix(0.16884,-0.259988,0,1,44.1758,13.8182)"
   class="st1">
				<path
   d="m 0,841.89 11.34,-11.34 v 5.67 h 41.81 v 5.67 5.67 H 11.34 v 5.67 z"
   class="st2"
   id="path98" />
			</g>
			<path
   d="m 0,841.89 11.34,-11.34 v 5.67 h 41.81 v 5.67 5.67 H 11.34 v 5.67 z"
   class="st6"
   id="path101" />
		</g>
		<g
   id="shape7-46"
   transform="translate(265.748,-457.087)">
			<title
   id="title104">正方形</title>
			<desc
   id="desc106">确定性决策分析的四个条件</desc>
			<g
   id="shadow7-47"
   transform="matrix(1,0,0.259988,0.16884,-218.881,699.745)"
   class="st1">
				<rect
   x="0"
   y="756.84998"
   width="85.039398"
   height="85.039398"
   class="st2"
   id="rect108" />
			</g>
			<rect
   x="0"
   y="756.84998"
   width="85.039398"
   height="85.039398"
   class="st3"
   id="rect111" />
			<text
   x="7.52"
   y="796.37"
   class="st7"
   id="text115">确定性决策分析<tspan
   x="17.52"
   dy="1.2em"
   class="st8"
   id="tspan113">的四个条件</tspan></text>		</g>
		<g
   id="shape9-54"
   transform="rotate(-90,-41.5355,492.0865)">
			<title
   id="title118">普通箭头.9</title>
			<g
   id="shadow9-55"
   transform="matrix(0.16884,-0.259988,0,1,0,0)"
   class="st1">
				<path
   d="m 0,841.89 11.34,-11.34 v 5.67 h 54.41 v 5.67 5.67 H 11.34 v 5.67 z"
   class="st2"
   id="path120" />
			</g>
			<path
   d="m 0,841.89 11.34,-11.34 v 5.67 h 54.41 v 5.67 5.67 H 11.34 v 5.67 z"
   class="st6"
   id="path123" />
		</g>
		<g
   id="shape10-59"
   transform="translate(185.039,-499.606)">
			<title
   id="title126">普通箭头.10</title>
			<g
   id="shadow10-60"
   transform="matrix(1,0,0.259988,0.16884,-218.881,699.745)"
   class="st1">
				<path
   d="m 0,841.89 11.34,-11.34 v 5.67 h 69.37 v 5.67 5.67 H 11.34 v 5.67 z"
   class="st2"
   id="path128" />
			</g>
			<path
   d="m 0,841.89 11.34,-11.34 v 5.67 h 69.37 v 5.67 5.67 H 11.34 v 5.67 z"
   class="st6"
   id="path131" />
		</g>
		<g
   id="shape11-64"
   transform="rotate(180,215.748,592.085)">
			<title
   id="title134">普通箭头.11</title>
			<g
   id="shadow11-65"
   transform="matrix(1,0,0.259988,0.16884,-218.881,699.745)"
   class="st1">
				<path
   d="m 0,841.89 11.34,-11.34 v 5.67 h 69.37 v 5.67 5.67 H 11.34 v 5.67 z"
   class="st2"
   id="path136" />
			</g>
			<path
   d="m 0,841.89 11.34,-11.34 v 5.67 h 69.37 v 5.67 5.67 H 11.34 v 5.67 z"
   class="st6"
   id="path139" />
		</g>
	</g>
<g
   inkscape:groupmode="layer"
   id="layer1"
   inkscape:label="Layer 1"
   style="display:inline" /></svg>
