<?xml version="1.0" encoding="UTF-8" standalone="no"?>
<svg
   xmlns:dc="http://purl.org/dc/elements/1.1/"
   xmlns:cc="http://creativecommons.org/ns#"
   xmlns:rdf="http://www.w3.org/1999/02/22-rdf-syntax-ns#"
   xmlns:svg="http://www.w3.org/2000/svg"
   xmlns="http://www.w3.org/2000/svg"
   xmlns:sodipodi="http://sodipodi.sourceforge.net/DTD/sodipodi-0.dtd"
   xmlns:inkscape="http://www.inkscape.org/namespaces/inkscape"
   version="1.1"
   width="313"
   height="372"
   id="svg330"
   sodipodi:docname="Main.svg"
   inkscape:version="1.0.2 (e86c870879, 2021-01-15)">
  <metadata
     id="metadata334">
    <rdf:RDF>
      <cc:Work
         rdf:about="">
        <dc:format>image/svg+xml</dc:format>
        <dc:type
           rdf:resource="http://purl.org/dc/dcmitype/StillImage" />
      </cc:Work>
    </rdf:RDF>
  </metadata>
  <sodipodi:namedview
     pagecolor="#ffffff"
     bordercolor="#666666"
     borderopacity="1"
     objecttolerance="10"
     gridtolerance="10"
     guidetolerance="10"
     inkscape:pageopacity="0"
     inkscape:pageshadow="2"
     inkscape:window-width="1920"
     inkscape:window-height="965"
     id="namedview332"
     showgrid="false"
     inkscape:lockguides="false"
     inkscape:zoom="2.1182796"
     inkscape:cx="131.21008"
     inkscape:cy="149.36815"
     inkscape:window-x="0"
     inkscape:window-y="0"
     inkscape:window-maximized="1"
     inkscape:current-layer="svg330" />
  <defs
     id="defs2" />
  <g
     id="g328">
    <g
       transform="translate(-174,-46) scale(1,1)"
       id="g58">
      <rect
         fill="#ffffff"
         stroke="none"
         x="256"
         y="56"
         width="73.18994140625"
         height="32"
         id="rect56" />
    </g>
    <g
       transform="translate(-174,-46) scale(1,1)"
       id="g62">
      <path
         fill="none"
         stroke="#000000"
         d="M 256 56 L 329.18994140625 56 L 329.18994140625 88 L 256 88 L 256 56 Z Z"
         stroke-miterlimit="10"
         id="path60" />
    </g>
    <g
       transform="translate(-174,-46) scale(1,1)"
       id="g70">
      <g
         id="g68">
        <path
           fill="none"
           stroke="none"
           id="path64" />
        <text
           fill="#000000"
           stroke="none"
           font-family="Arial"
           font-size="13px"
           font-style="normal"
           font-weight="normal"
           text-decoration="none"
           x="266.594970703125"
           y="78.5"
           id="text66">问题分析</text>
      </g>
    </g>
    <g
       transform="translate(-174,-46) scale(1,1)"
       id="g74">
      <rect
         fill="#ffffff"
         stroke="none"
         x="256"
         y="120"
         width="73.18994140625"
         height="32"
         id="rect72" />
    </g>
    <g
       transform="translate(-174,-46) scale(1,1)"
       id="g78">
      <path
         fill="none"
         stroke="#000000"
         d="M 256 120 L 329.18994140625 120 L 329.18994140625 152 L 256 152 L 256 120 Z Z"
         stroke-miterlimit="10"
         id="path76" />
    </g>
    <g
       transform="translate(-174,-46) scale(1,1)"
       id="g86">
      <g
         id="g84">
        <path
           fill="none"
           stroke="none"
           id="path80" />
        <text
           fill="#000000"
           stroke="none"
           font-family="Arial"
           font-size="13px"
           font-style="normal"
           font-weight="normal"
           text-decoration="none"
           x="266.594970703125"
           y="142.5"
           id="text82">确定目标</text>
      </g>
    </g>
    <g
       transform="translate(-174,-46) scale(1,1)"
       id="g90">
      <path
         fill="none"
         stroke="#000000"
         d="M 292 88 L 292 120"
         stroke-miterlimit="10"
         id="path88" />
    </g>
    <g
       transform="translate(-174,-46) scale(1,1)"
       id="g94">
      <path
         fill="#000000"
         stroke="none"
         d="M 287.790482243984 109.83732514237585 L 292 120 L 296.209517756016 109.83732514237585"
         id="path92" />
    </g>
    <g
       transform="translate(-174,-46) scale(1,1)"
       id="g98">
      <path
         fill="none"
         stroke="#000000"
         d="M 287.790482243984 109.83732514237585 L 292 120 L 296.209517756016 109.83732514237585 L 287.790482243984 109.83732514237585"
         stroke-miterlimit="10"
         id="path96" />
    </g>
    <g
       transform="translate(-174,-46) scale(1,1)"
       id="g102">
      <rect
         fill="#ffffff"
         stroke="none"
         x="256"
         y="184"
         width="73.18994140625"
         height="32"
         id="rect100" />
    </g>
    <g
       transform="translate(-174,-46) scale(1,1)"
       id="g106">
      <path
         fill="none"
         stroke="#000000"
         d="M 256 184 L 329.18994140625 184 L 329.18994140625 216 L 256 216 L 256 184 Z Z"
         stroke-miterlimit="10"
         id="path104" />
    </g>
    <g
       transform="translate(-174,-46) scale(1,1)"
       id="g114">
      <g
         id="g112">
        <path
           fill="none"
           stroke="none"
           id="path108" />
        <text
           fill="#000000"
           stroke="none"
           font-family="Arial"
           font-size="13px"
           font-style="normal"
           font-weight="normal"
           text-decoration="none"
           x="266.594970703125"
           y="206.5"
           id="text110">拟定方案</text>
      </g>
    </g>
    <g
       transform="translate(-174,-46) scale(1,1)"
       id="g118">
      <path
         fill="none"
         stroke="#000000"
         d="M 292 152 L 292 184"
         stroke-miterlimit="10"
         id="path116" />
    </g>
    <g
       transform="translate(-174,-46) scale(1,1)"
       id="g122">
      <path
         fill="#000000"
         stroke="none"
         d="M 287.790482243984 173.83732514237585 L 292 184 L 296.209517756016 173.83732514237585"
         id="path120" />
    </g>
    <g
       transform="translate(-174,-46) scale(1,1)"
       id="g126">
      <path
         fill="none"
         stroke="#000000"
         d="M 287.790482243984 173.83732514237585 L 292 184 L 296.209517756016 173.83732514237585 L 287.790482243984 173.83732514237585"
         stroke-miterlimit="10"
         id="path124" />
    </g>
    <g
       transform="translate(-174,-46) scale(1,1)"
       id="g130">
      <rect
         fill="#ffffff"
         stroke="none"
         x="256"
         y="248"
         width="73.18994140625"
         height="32"
         id="rect128" />
    </g>
    <g
       transform="translate(-174,-46) scale(1,1)"
       id="g134">
      <path
         fill="none"
         stroke="#000000"
         d="M 256 248 L 329.18994140625 248 L 329.18994140625 280 L 256 280 L 256 248 Z Z"
         stroke-miterlimit="10"
         id="path132" />
    </g>
    <g
       transform="translate(-174,-46) scale(1,1)"
       id="g142">
      <g
         id="g140">
        <path
           fill="none"
           stroke="none"
           id="path136" />
        <text
           fill="#000000"
           stroke="none"
           font-family="Arial"
           font-size="13px"
           font-style="normal"
           font-weight="normal"
           text-decoration="none"
           x="266.594970703125"
           y="270.5"
           id="text138">选择方案</text>
      </g>
    </g>
    <g
       transform="translate(-174,-46) scale(1,1)"
       id="g146">
      <rect
         fill="#ffffff"
         stroke="none"
         x="256"
         y="312"
         width="73.18994140625"
         height="32"
         id="rect144" />
    </g>
    <g
       transform="translate(-174,-46) scale(1,1)"
       id="g150">
      <path
         fill="none"
         stroke="#000000"
         d="M 256 312 L 329.18994140625 312 L 329.18994140625 344 L 256 344 L 256 312 Z Z"
         stroke-miterlimit="10"
         id="path148" />
    </g>
    <g
       transform="translate(-174,-46) scale(1,1)"
       id="g158">
      <g
         id="g156">
        <path
           fill="none"
           stroke="none"
           id="path152" />
        <text
           fill="#000000"
           stroke="none"
           font-family="Arial"
           font-size="13px"
           font-style="normal"
           font-weight="normal"
           text-decoration="none"
           x="266.594970703125"
           y="334.5"
           id="text154">实施方案</text>
      </g>
    </g>
    <g
       transform="translate(-174,-46) scale(1,1)"
       id="g162">
      <rect
         fill="#ffffff"
         stroke="none"
         x="256"
         y="376"
         width="73.18994140625"
         height="32"
         id="rect160" />
    </g>
    <g
       transform="translate(-174,-46) scale(1,1)"
       id="g166">
      <path
         fill="none"
         stroke="#000000"
         d="M 256 376 L 329.18994140625 376 L 329.18994140625 408 L 256 408 L 256 376 Z Z"
         stroke-miterlimit="10"
         id="path164" />
    </g>
    <g
       transform="translate(-174,-46) scale(1,1)"
       id="g174">
      <g
         id="g172">
        <path
           fill="none"
           stroke="none"
           id="path168" />
        <text
           fill="#000000"
           stroke="none"
           font-family="Arial"
           font-size="13px"
           font-style="normal"
           font-weight="normal"
           text-decoration="none"
           x="266.594970703125"
           y="398.5"
           id="text170">问题解决</text>
      </g>
    </g>
    <g
       transform="translate(-174,-46) scale(1,1)"
       id="g178">
      <path
         fill="none"
         stroke="#000000"
         d="M 296 344 L 296 376"
         stroke-miterlimit="10"
         id="path176" />
    </g>
    <g
       transform="translate(-174,-46) scale(1,1)"
       id="g182">
      <path
         fill="#000000"
         stroke="none"
         d="M 291.790482243984 365.83732514237585 L 296 376 L 300.209517756016 365.83732514237585"
         id="path180" />
    </g>
    <g
       transform="translate(-174,-46) scale(1,1)"
       id="g186">
      <path
         fill="none"
         stroke="#000000"
         d="M 291.790482243984 365.83732514237585 L 296 376 L 300.209517756016 365.83732514237585 L 291.790482243984 365.83732514237585"
         stroke-miterlimit="10"
         id="path184" />
    </g>
    <g
       transform="translate(-174,-46) scale(1,1)"
       id="g190">
      <path
         fill="none"
         stroke="#000000"
         d="M 292 216 L 292 248"
         stroke-miterlimit="10"
         id="path188" />
    </g>
    <g
       transform="translate(-174,-46) scale(1,1)"
       id="g194">
      <path
         fill="#000000"
         stroke="none"
         d="M 287.790482243984 237.83732514237585 L 292 248 L 296.209517756016 237.83732514237585"
         id="path192" />
    </g>
    <g
       transform="translate(-174,-46) scale(1,1)"
       id="g198">
      <path
         fill="none"
         stroke="#000000"
         d="M 287.790482243984 237.83732514237585 L 292 248 L 296.209517756016 237.83732514237585 L 287.790482243984 237.83732514237585"
         stroke-miterlimit="10"
         id="path196" />
    </g>
    <g
       transform="translate(-174,-46) scale(1,1)"
       id="g202">
      <path
         fill="none"
         stroke="#000000"
         d="M 293 280 L 293 312"
         stroke-miterlimit="10"
         id="path200" />
    </g>
    <g
       transform="translate(-174,-46) scale(1,1)"
       id="g206">
      <path
         fill="#000000"
         stroke="none"
         d="M 288.790482243984 301.83732514237585 L 293 312 L 297.209517756016 301.83732514237585"
         id="path204" />
    </g>
    <g
       transform="translate(-174,-46) scale(1,1)"
       id="g210">
      <path
         fill="none"
         stroke="#000000"
         d="M 288.790482243984 301.83732514237585 L 293 312 L 297.209517756016 301.83732514237585 L 288.790482243984 301.83732514237585"
         stroke-miterlimit="10"
         id="path208" />
    </g>
    <g
       transform="translate(-174,-46) scale(1,1)"
       id="g214">
      <path
         fill="none"
         stroke="#000000"
         d="M 256 328 L 192 328 M 192 328 A 8 8 0 0 1 184 320 L 184 208 M 184 208 A 8 8 0 0 1 192 200 L 256 200"
         stroke-miterlimit="10"
         id="path212" />
    </g>
    <g
       transform="translate(-174,-46) scale(1,1)"
       id="g218">
      <path
         fill="#000000"
         stroke="none"
         d="M 245.83732514237585 204.209517756016 L 256 200 L 245.83732514237585 195.790482243984"
         id="path216" />
    </g>
    <g
       transform="translate(-174,-46) scale(1,1)"
       id="g222">
      <path
         fill="none"
         stroke="#000000"
         d="M 245.83732514237585 204.209517756016 L 256 200 L 245.83732514237585 195.790482243984 L 245.83732514237585 204.209517756016"
         stroke-miterlimit="10"
         id="path220" />
    </g>
    <g
       transform="translate(-174,-46) scale(1,1)"
       id="g226">
      <path
         fill="none"
         stroke="#000000"
         d="M 256 328 L 192 328 M 192 328 A 8 8 0 0 1 184 320 L 184 272 M 184 272 A 8 8 0 0 1 192 264 L 256 264"
         stroke-miterlimit="10"
         id="path224" />
    </g>
    <g
       transform="translate(-174,-46) scale(1,1)"
       id="g230">
      <path
         fill="#000000"
         stroke="none"
         d="M 245.83732514237585 268.209517756016 L 256 264 L 245.83732514237585 259.790482243984"
         id="path228" />
    </g>
    <g
       transform="translate(-174,-46) scale(1,1)"
       id="g234">
      <path
         fill="none"
         stroke="#000000"
         d="M 245.83732514237585 268.209517756016 L 256 264 L 245.83732514237585 259.790482243984 L 245.83732514237585 268.209517756016"
         stroke-miterlimit="10"
         id="path232" />
    </g>
    <g
       transform="translate(-174,-46) scale(1,1)"
       id="g238">
      <path
         fill="none"
         stroke="#000000"
         d="M 256 328 L 192 328 M 192 328 A 8 8 0 0 1 184 320 L 184 144 M 184 144 A 8 8 0 0 1 192 136 L 256 136"
         stroke-miterlimit="10"
         id="path236" />
    </g>
    <g
       transform="translate(-174,-46) scale(1,1)"
       id="g242">
      <path
         fill="#000000"
         stroke="none"
         d="M 245.83732514237585 140.209517756016 L 256 136 L 245.83732514237585 131.790482243984"
         id="path240" />
    </g>
    <g
       transform="translate(-174,-46) scale(1,1)"
       id="g246">
      <path
         fill="none"
         stroke="#000000"
         d="M 245.83732514237585 140.209517756016 L 256 136 L 245.83732514237585 131.790482243984 L 245.83732514237585 140.209517756016"
         stroke-miterlimit="10"
         id="path244" />
    </g>
    <g
       transform="translate(-174,-46) scale(1,1)"
       id="g254">
      <g
         id="g252">
        <path
           fill="none"
           stroke="none"
           id="path248" />
        <text
           fill="#000000"
           stroke="none"
           font-family="Arial"
           font-size="13px"
           font-style="normal"
           font-weight="normal"
           text-decoration="none"
           x="197"
           y="130"
           id="text250">修订目标</text>
      </g>
    </g>
    <g
       transform="translate(-174,-46) scale(1,1)"
       id="g262">
      <g
         id="g260">
        <path
           fill="none"
           stroke="none"
           id="path256" />
        <text
           fill="#000000"
           stroke="none"
           font-family="Arial"
           font-size="13px"
           font-style="normal"
           font-weight="normal"
           text-decoration="none"
           x="197"
           y="194"
           id="text258">补充方案</text>
      </g>
    </g>
    <g
       transform="translate(-174,-46) scale(1,1)"
       id="g270">
      <g
         id="g268">
        <path
           fill="none"
           stroke="none"
           id="path264" />
        <text
           fill="#000000"
           stroke="none"
           font-family="Arial"
           font-size="13px"
           font-style="normal"
           font-weight="normal"
           text-decoration="none"
           x="197"
           y="258"
           id="text266">修正方案</text>
      </g>
    </g>
    <g
       transform="translate(-174,-46) scale(1,1)"
       id="g278">
      <g
         id="g276">
        <path
           fill="none"
           stroke="none"
           id="path272" />
        <text
           fill="#000000"
           stroke="none"
           font-family="Arial"
           font-size="13px"
           font-style="normal"
           font-weight="normal"
           text-decoration="none"
           x="205"
           y="322"
           id="text274">反馈</text>
      </g>
    </g>
    <g
       transform="translate(-174,-46) scale(1,1)"
       id="g282">
      <path
         fill="none"
         stroke="#000000"
         d="M 329 328 L 400 328 M 400 328 A 8 8 0 0 0 408 320 L 408 80 M 408 80 A 8 8 0 0 0 400 72 L 329 72"
         stroke-miterlimit="10"
         id="path280" />
    </g>
    <g
       transform="translate(-174,-46) scale(1,1)"
       id="g286">
      <path
         fill="#000000"
         stroke="none"
         d="M 339.16267485762415 67.79048224398402 L 329 72 L 339.16267485762415 76.20951775601598"
         id="path284" />
    </g>
    <g
       transform="translate(-174,-46) scale(1,1)"
       id="g290">
      <path
         fill="none"
         stroke="#000000"
         d="M 339.16267485762415 67.79048224398402 L 329 72 L 339.16267485762415 76.20951775601598 L 339.16267485762415 67.79048224398402"
         stroke-miterlimit="10"
         id="path288" />
    </g>
    <g
       transform="translate(-174,-46) scale(1,1)"
       id="g294">
      <path
         fill="none"
         stroke="#000000"
         d="M 329 200 L 376 200 M 376 200 A 8 8 0 0 0 384 192 L 384 144 M 384 144 A 8 8 0 0 0 376 136 L 329 136"
         stroke-miterlimit="10"
         id="path292" />
    </g>
    <g
       transform="translate(-174,-46) scale(1,1)"
       id="g298">
      <path
         fill="#000000"
         stroke="none"
         d="M 339.16267485762415 131.790482243984 L 329 136 L 339.16267485762415 140.209517756016"
         id="path296" />
    </g>
    <g
       transform="translate(-174,-46) scale(1,1)"
       id="g302">
      <path
         fill="none"
         stroke="#000000"
         d="M 339.16267485762415 131.790482243984 L 329 136 L 339.16267485762415 140.209517756016 L 339.16267485762415 131.790482243984"
         stroke-miterlimit="10"
         id="path300" />
    </g>
    <g
       transform="translate(-174,-46) scale(1,1)"
       id="g310">
      <g
         id="g308">
        <path
           fill="none"
           stroke="none"
           id="path304" />
        <text
           fill="#000000"
           stroke="none"
           font-family="Arial"
           font-size="13px"
           font-style="normal"
           font-weight="normal"
           text-decoration="none"
           x="341"
           y="130"
           id="text306">修订目标</text>
      </g>
    </g>
    <g
       transform="translate(-174,-46) scale(1,1)"
       id="g318">
      <g
         id="g316">
        <path
           fill="none"
           stroke="none"
           id="path312" />
        <text
           fill="#000000"
           stroke="none"
           font-family="Arial"
           font-size="13px"
           font-style="normal"
           font-weight="normal"
           text-decoration="none"
           x="349"
           y="322"
           id="text314">反馈</text>
      </g>
    </g>
    <g
       transform="translate(-174,-46) scale(1,1)"
       id="g326">
      <g
         id="g324">
        <path
           fill="none"
           stroke="none"
           id="path320" />
        <text
           fill="#000000"
           stroke="none"
           font-family="Arial"
           font-size="13px"
           font-style="normal"
           font-weight="normal"
           text-decoration="none"
           x="421"
           y="202"
           id="text322">追踪决策</text>
      </g>
    </g>
  </g>
</svg>
